<?xml version="1.0" standalone="no"?>
<!DOCTYPE svg PUBLIC "-//W3C//DTD SVG 20010904//EN"
 "http://www.w3.org/TR/2001/REC-SVG-20010904/DTD/svg10.dtd">
<svg version="1.0" xmlns="http://www.w3.org/2000/svg"
 width="34" height="30" >
<g transform="translate(0,30) scale(0.1,-0.1)">
<path fill="#339933" d="M127 264 c-11 -14 -17 -34 -14 -45 6 -21 -5 -24 -32 -10 -21 12 -61
3 -61 -13 0 -6 7 -24 15 -40 14 -27 14 -31 0 -38 -8 -5 -15 -13 -15 -17 0 -11
46 -31 70 -31 11 0 20 -7 20 -15 0 -13 3 -14 23 -3 27 15 64 18 95 7 16 -6 22
-5 22 6 0 8 8 15 18 15 23 0 56 35 47 49 -3 6 -13 11 -21 11 -18 0 -19 19 -1
26 9 3 12 16 9 34 -4 25 -9 30 -32 30 -15 0 -33 -7 -40 -15 -18 -21 -30 -19
-30 6 0 17 -42 70 -53 69 -1 0 -10 -12 -20 -26z"/>
</g>
</svg>