<?xml version="1.0" standalone="no"?>
<!DOCTYPE svg PUBLIC "-//W3C//DTD SVG 20010904//EN" "http://www.w3.org/TR/2001/REC-SVG-20010904/DTD/svg10.dtd">
<svg version="1.0" xmlns="http://www.w3.org/2000/svg" width="1003" height="401" viewBox="0 0 1003 401">
<g transform="translate(0,401) scale(0.1,-0.1)">
<path fill="#cc0066" d="M3022 3873 c-39 -19 -72 -58 -72 -85 0 -11 16 -45 35 -76 45 -74 60
-153 44 -230 -14 -72 -37 -117 -95 -188 l-47 -57 124 6 c198 9 321 54 423 151
68 67 96 125 96 202 0 105 -58 192 -161 245 -92 46 -282 64 -347 32z"/>
<path fill="#cc0066" d="M2450 3724 c-190 -51 -355 -188 -396 -331 -36 -123 -9 -136 269 -127
229 7 271 1 311 -47 l26 -30 40 43 c135 145 160 379 50 458 -69 49 -191 63
-300 34z"/>
<path fill="#cc0066" d="M3690 3478 c-93 -180 -313 -326 -534 -353 -31 -4 -56 -11 -56 -17 0
-26 45 -89 99 -141 103 -98 208 -132 321 -103 129 33 248 118 310 222 32 53
35 65 35 134 0 66 -5 84 -36 151 -34 70 -91 149 -109 149 -4 0 -18 -19 -30
-42z"/>
<path fill="#cc0066" d="M2190 3154 c-191 -67 -326 -172 -349 -271 -32 -132 52 -266 192 -308
53 -16 174 -20 193 -7 6 4 14 36 17 72 13 125 108 262 240 345 61 38 69 66 32
105 -64 67 -227 99 -325 64z"/>
<path fill="#cc0066" d="M2890 2954 c-48 -22 -65 -24 -132 -19 -63 5 -85 3 -120 -13 -82 -36
-202 -184 -215 -267 -8 -51 22 -152 62 -207 25 -34 52 -55 102 -80 65 -32 72
-33 183 -33 100 0 123 4 176 26 131 55 292 186 329 269 26 58 14 87 -54 125
-97 55 -175 119 -211 173 -19 28 -41 51 -50 51 -8 -1 -40 -12 -70 -25z"/>
<path fill="#660000" d="M831 2645 c-30 -9 -68 -24 -85 -35 -39 -24 -105 -93 -140 -145 l-26
-40 0 73 0 72 -265 0 -265 0 0 -1075 0 -1075 265 0 265 0 0 884 0 883 23 34
c19 28 30 35 65 37 41 3 43 1 60 -35 15 -35 17 -113 20 -920 l3 -883 260 0
259 0 0 793 c1 822 6 979 34 1022 24 36 89 36 113 -1 24 -37 31 -290 32 -1131
l1 -683 260 0 260 0 0 863 c0 891 -5 1030 -40 1133 -53 153 -168 237 -325 238
-61 0 -91 -5 -128 -21 -56 -26 -146 -108 -184 -169 -16 -24 -30 -44 -33 -44
-3 0 -15 17 -26 38 -88 153 -252 229 -403 187z"/>
<path fill="#660000" d="M4376 2643 c-97 -29 -165 -92 -233 -216 l-34 -62 4 93 4 92 -268 0
-269 0 0 -1065 0 -1065 270 0 270 0 1 398 c0 218 4 508 8 643 l8 247 30 53
c38 69 106 106 206 116 l67 6 0 388 c0 214 -3 389 -7 388 -5 0 -30 -7 -57 -16z"/>
<path fill="#660000" d="M5499 2650 c-132 -21 -234 -73 -325 -166 -108 -109 -149 -228 -161
-470 l-6 -124 256 0 257 0 0 150 c0 189 10 220 68 220 53 0 71 -23 84 -106 16
-104 7 -314 -15 -348 -23 -34 -79 -69 -252 -158 -185 -94 -255 -139 -308 -198
-69 -77 -86 -166 -87 -452 0 -342 35 -465 155 -548 100 -69 234 -89 337 -50
61 22 132 89 172 160 l26 45 0 -92 0 -93 260 0 260 0 0 753 c0 955 -9 1086
-77 1221 -31 61 -133 165 -190 194 -105 54 -320 83 -454 62z m176 -1788 c-8
-66 -33 -95 -77 -90 -20 2 -38 13 -52 31 -20 27 -21 41 -21 235 0 206 0 207
27 262 15 30 49 78 75 105 l48 50 3 -270 c2 -148 0 -294 -3 -323z"/>
<path fill="#660000" d="M7145 2647 c-132 -35 -207 -121 -252 -292 -14 -51 -17 -147 -20 -640
-4 -606 0 -697 38 -805 56 -161 189 -247 370 -238 102 4 169 32 247 102 l52
48 -1 -64 c0 -34 -4 -112 -8 -172 -7 -102 -9 -111 -35 -132 -36 -31 -80 -31
-111 1 -14 13 -25 31 -25 40 0 13 -33 15 -266 15 l-266 0 7 -53 c12 -83 44
-178 78 -230 58 -87 179 -151 341 -178 90 -15 321 -6 401 16 205 56 352 202
397 396 10 42 13 286 13 1104 l0 1050 -251 3 -251 2 -18 -82 c-16 -74 -19 -80
-31 -62 -102 140 -264 208 -409 171z m405 -422 c13 -26 15 -105 15 -545 -1
-554 -4 -591 -50 -612 -31 -14 -71 -3 -87 25 -10 17 -13 140 -13 552 0 292 3
542 8 557 11 42 35 59 76 56 28 -2 39 -9 51 -33z"/>
<path fill="#660000" d="M9248 2650 c-240 -43 -395 -189 -452 -422 -34 -136 -38 -231 -33
-776 4 -603 5 -606 79 -762 75 -157 208 -258 388 -296 90 -19 289 -14 361 9
146 47 250 144 325 302 50 106 65 174 71 338 l6 147 -257 0 -256 0 0 -127 c0
-171 -12 -241 -45 -270 -33 -29 -78 -30 -103 -2 -28 29 -32 79 -32 395 l0 284
345 0 345 0 0 238 c0 449 -44 625 -195 778 -74 75 -155 122 -255 149 -69 19
-230 27 -292 15z m179 -417 c15 -23 19 -56 22 -210 l3 -183 -76 0 -76 0 0 158
c1 168 10 239 31 253 8 5 29 9 46 9 24 0 37 -7 50 -27z"/>
<path fill="#339933" d="M2470 1190 l0 -760 280 0 280 0 0 760 0 760 -280 0 -280 0 0 -760z"/>
</g>
</svg>